<svg xmlns="http://www.w3.org/2000/svg" viewBox="0 0 512 512">
  <defs>
    <linearGradient id="bg" x1="0" y1="0" x2="1" y2="1">
      <stop offset="0" stop-color="#071116"/>
      <stop offset="0.48" stop-color="#17333d"/>
      <stop offset="1" stop-color="#7f4d68"/>
    </linearGradient>
    <linearGradient id="line" x1="0" y1="0" x2="1" y2="1">
      <stop offset="0" stop-color="#f4c866"/>
      <stop offset="1" stop-color="#54d2c2"/>
    </linearGradient>
  </defs>
  <rect width="512" height="512" rx="96" fill="url(#bg)"/>
  <circle cx="378" cy="116" r="36" fill="#f4c866"/>
  <path d="M118 300c28-86 66-138 114-156 34-13 62 5 63 43l2 66 22-48c13-29 46-16 36 14l-47 137c-12 36-47 59-85 55-71-7-117-45-105-111z" fill="#f7fbff" opacity=".92"/>
  <path d="M162 302c43 8 78 28 105 60M188 256c31-9 62-3 93 18M223 195c-2 55 5 109 22 163M291 275c16 3 30 14 42 34" fill="none" stroke="#071116" stroke-width="12" stroke-linecap="round" opacity=".62"/>
  <path d="M98 132l44 30 54-52 58 40 68-67 58 33" fill="none" stroke="url(#line)" stroke-width="9" stroke-linecap="round" stroke-linejoin="round"/>
  <g fill="#f7fbff">
    <circle cx="98" cy="132" r="8"/>
    <circle cx="142" cy="162" r="7"/>
    <circle cx="196" cy="110" r="8"/>
    <circle cx="254" cy="150" r="7"/>
    <circle cx="322" cy="83" r="8"/>
    <circle cx="380" cy="116" r="7"/>
  </g>
</svg>
